<?xml version="1.0" encoding="UTF-8" standalone="no"?>
<!-- Created with Inkscape (http://www.inkscape.org/) -->

<svg
   width="500"
   height="500"
   viewBox="0 0 500 500"
   version="1.1"
   id="svg3165"
   sodipodi:docname="github-organization-profile.svg"
   inkscape:version="1.1.2 (0a00cf5339, 2022-02-04)"
   xmlns:inkscape="http://www.inkscape.org/namespaces/inkscape"
   xmlns:sodipodi="http://sodipodi.sourceforge.net/DTD/sodipodi-0.dtd"
   xmlns="http://www.w3.org/2000/svg"
   xmlns:svg="http://www.w3.org/2000/svg">
  <sodipodi:namedview
     id="namedview1066"
     pagecolor="#ffffff"
     bordercolor="#666666"
     borderopacity="1.0"
     inkscape:pageshadow="2"
     inkscape:pageopacity="0.0"
     inkscape:pagecheckerboard="0"
     showgrid="false"
     inkscape:zoom="0.3755"
     inkscape:cx="1.3315579"
     inkscape:cy="444.74035"
     inkscape:window-width="1920"
     inkscape:window-height="1058"
     inkscape:window-x="0"
     inkscape:window-y="22"
     inkscape:window-maximized="1"
     inkscape:current-layer="svg3165" />
  <defs
     id="defs3162" />
  <g
     id="g9724-3-2-7-7-5-8-8-7-4-8-3-7-5-9-3-9-2"
     transform="matrix(0.37225523,0,0,0.37225523,-4205.6419,-338.91967)">
    <rect
       style="fill:#f5f5f5;stroke:#ffffff;stroke-width:7.01381;stroke-miterlimit:4;stroke-dasharray:none;stroke-dashoffset:6;stroke-opacity:0.999946"
       id="rect1017-5-8-9-6-6-5-29-9-7-0-0-6-7-8-8-3-6-3-6"
       width="300"
       height="300"
       x="11643.927"
       y="1599.9999" />
    <path
       id="rect1017-6-3-1-1-7-1-8-0-2-9-8-6-0-9-7-4-2-75-38-7"
       style="fill:#ad0000;stroke:#ffffff;stroke-width:7.01381;stroke-miterlimit:4;stroke-dasharray:none;stroke-dashoffset:6;stroke-opacity:0.999949"
       d="m 11943.927,1600 100,-100 v 300 l -100,100 z" />
    <path
       id="rect1017-6-7-5-3-9-5-3-7-2-8-0-6-4-4-3-4-3-4-3-0-5"
       style="fill:#4d4d4d;stroke:#ffffff;stroke-width:7.01381;stroke-miterlimit:4;stroke-dasharray:none;stroke-dashoffset:6;stroke-opacity:1"
       d="m 12043.927,1500 -100,100 h -300 l 100,-100 z" />
  </g>
  <g
     id="g9724-3-2-7-7-5-8-8-7-4-8-3-7-5-9-3-9-2-2"
     transform="matrix(0.37225523,0,0,0.37225523,-4093.9651,-338.91967)">
    <rect
       style="fill:#f5f5f5;stroke:#ffffff;stroke-width:7.01381;stroke-miterlimit:4;stroke-dasharray:none;stroke-dashoffset:6;stroke-opacity:0.999946"
       id="rect1017-5-8-9-6-6-5-29-9-7-0-0-6-7-8-8-3-6-3-6-8"
       width="300"
       height="300"
       x="11643.927"
       y="1599.9999" />
    <path
       id="rect1017-6-3-1-1-7-1-8-0-2-9-8-6-0-9-7-4-2-75-38-7-2"
       style="fill:#ad0000;stroke:#ffffff;stroke-width:7.01381;stroke-miterlimit:4;stroke-dasharray:none;stroke-dashoffset:6;stroke-opacity:0.999949"
       d="m 11943.927,1600 100,-100 v 300 l -100,100 z" />
    <path
       id="rect1017-6-7-5-3-9-5-3-7-2-8-0-6-4-4-3-4-3-4-3-0-5-9"
       style="fill:#4d4d4d;stroke:#ffffff;stroke-width:7.01381;stroke-miterlimit:4;stroke-dasharray:none;stroke-dashoffset:6;stroke-opacity:1"
       d="m 12043.927,1500 -100,100 h -300 l 100,-100 z" />
  </g>
  <g
     id="g9724-3-2-7-7-5-8-8-7-4-8-3-7-5-9-3-9-2-6"
     transform="matrix(0.37225523,0,0,0.37225523,-4205.6419,-450.5962)">
    <rect
       style="fill:#f5f5f5;stroke:#ffffff;stroke-width:7.01381;stroke-miterlimit:4;stroke-dasharray:none;stroke-dashoffset:6;stroke-opacity:0.999946"
       id="rect1017-5-8-9-6-6-5-29-9-7-0-0-6-7-8-8-3-6-3-6-0"
       width="300"
       height="300"
       x="11643.927"
       y="1599.9999" />
    <path
       id="rect1017-6-3-1-1-7-1-8-0-2-9-8-6-0-9-7-4-2-75-38-7-27"
       style="fill:#ad0000;stroke:#ffffff;stroke-width:7.01381;stroke-miterlimit:4;stroke-dasharray:none;stroke-dashoffset:6;stroke-opacity:0.999949"
       d="m 11943.927,1600 100,-100 v 300 l -100,100 z" />
    <path
       id="rect1017-6-7-5-3-9-5-3-7-2-8-0-6-4-4-3-4-3-4-3-0-5-6"
       style="fill:#4d4d4d;stroke:#ffffff;stroke-width:7.01381;stroke-miterlimit:4;stroke-dasharray:none;stroke-dashoffset:6;stroke-opacity:1"
       d="m 12043.927,1500 -100,100 h -300 l 100,-100 z" />
  </g>
  <g
     id="g9724-3-2-7-7-5-8-8-7-4-8-3-7-5-9-3-9-2-2-1"
     transform="matrix(0.37225523,0,0,0.37225523,-4093.9651,-450.5962)">
    <rect
       style="fill:#f5f5f5;stroke:#ffffff;stroke-width:7.01381;stroke-miterlimit:4;stroke-dasharray:none;stroke-dashoffset:6;stroke-opacity:0.999946"
       id="rect1017-5-8-9-6-6-5-29-9-7-0-0-6-7-8-8-3-6-3-6-8-3"
       width="300"
       height="300"
       x="11643.927"
       y="1599.9999" />
    <path
       id="rect1017-6-3-1-1-7-1-8-0-2-9-8-6-0-9-7-4-2-75-38-7-2-2"
       style="fill:#ad0000;stroke:#ffffff;stroke-width:7.01381;stroke-miterlimit:4;stroke-dasharray:none;stroke-dashoffset:6;stroke-opacity:0.999949"
       d="m 11943.927,1600 100,-100 v 300 l -100,100 z" />
    <path
       id="rect1017-6-7-5-3-9-5-3-7-2-8-0-6-4-4-3-4-3-4-3-0-5-9-1"
       style="fill:#4d4d4d;stroke:#ffffff;stroke-width:7.01381;stroke-miterlimit:4;stroke-dasharray:none;stroke-dashoffset:6;stroke-opacity:1"
       d="m 12043.927,1500 -100,100 h -300 l 100,-100 z" />
  </g>
  <g
     id="g9724-3-2-7-7-5-8-8-7-4-8-3-7-5-9-3-9-2-5"
     transform="matrix(0.37225523,0,0,0.37225523,-4242.8676,-301.69412)">
    <rect
       style="fill:#f5f5f5;stroke:#ffffff;stroke-width:7.01381;stroke-miterlimit:4;stroke-dasharray:none;stroke-dashoffset:6;stroke-opacity:0.999946"
       id="rect1017-5-8-9-6-6-5-29-9-7-0-0-6-7-8-8-3-6-3-6-9"
       width="300"
       height="300"
       x="11643.927"
       y="1599.9999" />
    <path
       id="rect1017-6-3-1-1-7-1-8-0-2-9-8-6-0-9-7-4-2-75-38-7-9"
       style="fill:#ad0000;stroke:#ffffff;stroke-width:7.01381;stroke-miterlimit:4;stroke-dasharray:none;stroke-dashoffset:6;stroke-opacity:0.999949"
       d="m 11943.927,1600 100,-100 v 300 l -100,100 z" />
    <path
       id="rect1017-6-7-5-3-9-5-3-7-2-8-0-6-4-4-3-4-3-4-3-0-5-1"
       style="fill:#4d4d4d;stroke:#ffffff;stroke-width:7.01381;stroke-miterlimit:4;stroke-dasharray:none;stroke-dashoffset:6;stroke-opacity:1"
       d="m 12043.927,1500 -100,100 h -300 l 100,-100 z" />
  </g>
  <g
     id="g9724-3-2-7-7-5-8-8-7-4-8-3-7-5-9-3-9-2-2-4"
     transform="matrix(0.37225523,0,0,0.37225523,-4131.1906,-301.69412)">
    <rect
       style="fill:#f5f5f5;stroke:#ffffff;stroke-width:7.01381;stroke-miterlimit:4;stroke-dasharray:none;stroke-dashoffset:6;stroke-opacity:0.999946"
       id="rect1017-5-8-9-6-6-5-29-9-7-0-0-6-7-8-8-3-6-3-6-8-9"
       width="300"
       height="300"
       x="11643.927"
       y="1599.9999" />
    <path
       id="rect1017-6-3-1-1-7-1-8-0-2-9-8-6-0-9-7-4-2-75-38-7-2-1"
       style="fill:#ad0000;stroke:#ffffff;stroke-width:7.01381;stroke-miterlimit:4;stroke-dasharray:none;stroke-dashoffset:6;stroke-opacity:0.999949"
       d="m 11943.927,1600 100,-100 v 300 l -100,100 z" />
    <path
       id="rect1017-6-7-5-3-9-5-3-7-2-8-0-6-4-4-3-4-3-4-3-0-5-9-0"
       style="fill:#4d4d4d;stroke:#ffffff;stroke-width:7.01381;stroke-miterlimit:4;stroke-dasharray:none;stroke-dashoffset:6;stroke-opacity:1"
       d="m 12043.927,1500 -100,100 h -300 l 100,-100 z" />
  </g>
  <g
     id="g9724-3-2-7-7-5-8-8-7-4-8-3-7-5-9-3-9-2-6-7"
     transform="matrix(0.37225523,0,0,0.37225523,-4242.8676,-413.37066)">
    <rect
       style="fill:#f5f5f5;stroke:#ffffff;stroke-width:7.01381;stroke-miterlimit:4;stroke-dasharray:none;stroke-dashoffset:6;stroke-opacity:0.999946"
       id="rect1017-5-8-9-6-6-5-29-9-7-0-0-6-7-8-8-3-6-3-6-0-5"
       width="300"
       height="300"
       x="11643.927"
       y="1599.9999" />
    <path
       id="rect1017-6-3-1-1-7-1-8-0-2-9-8-6-0-9-7-4-2-75-38-7-27-8"
       style="fill:#ad0000;stroke:#ffffff;stroke-width:7.01381;stroke-miterlimit:4;stroke-dasharray:none;stroke-dashoffset:6;stroke-opacity:0.999949"
       d="m 11943.927,1600 100,-100 v 300 l -100,100 z" />
    <path
       id="rect1017-6-7-5-3-9-5-3-7-2-8-0-6-4-4-3-4-3-4-3-0-5-6-7"
       style="fill:#4d4d4d;stroke:#ffffff;stroke-width:7.01381;stroke-miterlimit:4;stroke-dasharray:none;stroke-dashoffset:6;stroke-opacity:1"
       d="m 12043.927,1500 -100,100 h -300 l 100,-100 z" />
  </g>
  <g
     id="g9724-3-2-7-7-5-8-8-7-4-8-3-7-5-9-3-9-2-2-1-0"
     transform="matrix(0.37225523,0,0,0.37225523,-4131.1906,-413.37066)">
    <rect
       style="fill:#f5f5f5;stroke:#ffffff;stroke-width:7.01381;stroke-miterlimit:4;stroke-dasharray:none;stroke-dashoffset:6;stroke-opacity:0.999946"
       id="rect1017-5-8-9-6-6-5-29-9-7-0-0-6-7-8-8-3-6-3-6-8-3-4"
       width="300"
       height="300"
       x="11643.927"
       y="1599.9999" />
    <path
       id="rect1017-6-3-1-1-7-1-8-0-2-9-8-6-0-9-7-4-2-75-38-7-2-2-8"
       style="fill:#ad0000;stroke:#ffffff;stroke-width:7.01381;stroke-miterlimit:4;stroke-dasharray:none;stroke-dashoffset:6;stroke-opacity:0.999949"
       d="m 11943.927,1600 100,-100 v 300 l -100,100 z" />
    <path
       id="rect1017-6-7-5-3-9-5-3-7-2-8-0-6-4-4-3-4-3-4-3-0-5-9-1-0"
       style="fill:#4d4d4d;stroke:#ffffff;stroke-width:7.01381;stroke-miterlimit:4;stroke-dasharray:none;stroke-dashoffset:6;stroke-opacity:1"
       d="m 12043.927,1500 -100,100 h -300 l 100,-100 z" />
  </g>
  <g
     id="g9724-3-2-7-7-5-8-8-7-4-8-3-7-5-9-3-9-0-6"
     transform="matrix(0.18612759,0,0,0.18612759,-1945.3214,-190.0175)">
    <rect
       style="fill:#f5f5f5;stroke:#ffffff;stroke-width:7.01381;stroke-miterlimit:4;stroke-dasharray:none;stroke-dashoffset:6;stroke-opacity:0.999946"
       id="rect1017-5-8-9-6-6-5-29-9-7-0-0-6-7-8-8-3-6-3-0-9"
       width="300"
       height="300"
       x="11643.927"
       y="1599.9999" />
    <path
       id="rect1017-6-3-1-1-7-1-8-0-2-9-8-6-0-9-7-4-2-75-38-4-8"
       style="fill:#ad0000;stroke:#ffffff;stroke-width:7.01381;stroke-miterlimit:4;stroke-dasharray:none;stroke-dashoffset:6;stroke-opacity:0.999949"
       d="m 11943.927,1600 100,-100 v 300 l -100,100 z" />
    <path
       id="rect1017-6-7-5-3-9-5-3-7-2-8-0-6-4-4-3-4-3-4-3-0-6-7"
       style="fill:#4d4d4d;stroke:#ffffff;stroke-width:7.01381;stroke-miterlimit:4;stroke-dasharray:none;stroke-dashoffset:6;stroke-opacity:1"
       d="m 12043.927,1500 -100,100 h -300 l 100,-100 z" />
  </g>
  <g
     id="g9724-3-2-7-7-5-8-8-7-4-8-3-7-5-9-3-9-0-6-1"
     transform="matrix(0.18612759,0,0,0.18612759,-2094.2234,70.561089)">
    <rect
       style="fill:#f5f5f5;stroke:#ffffff;stroke-width:7.01381;stroke-miterlimit:4;stroke-dasharray:none;stroke-dashoffset:6;stroke-opacity:0.999946"
       id="rect1017-5-8-9-6-6-5-29-9-7-0-0-6-7-8-8-3-6-3-0-9-0"
       width="300"
       height="300"
       x="11643.927"
       y="1599.9999" />
    <path
       id="rect1017-6-3-1-1-7-1-8-0-2-9-8-6-0-9-7-4-2-75-38-4-8-4"
       style="fill:#ad0000;stroke:#ffffff;stroke-width:7.01381;stroke-miterlimit:4;stroke-dasharray:none;stroke-dashoffset:6;stroke-opacity:0.999949"
       d="m 11943.927,1600 100,-100 v 300 l -100,100 z" />
    <path
       id="rect1017-6-7-5-3-9-5-3-7-2-8-0-6-4-4-3-4-3-4-3-0-6-7-2"
       style="fill:#4d4d4d;stroke:#ffffff;stroke-width:7.01381;stroke-miterlimit:4;stroke-dasharray:none;stroke-dashoffset:6;stroke-opacity:1"
       d="m 12043.927,1500 -100,100 h -300 l 100,-100 z" />
  </g>
  <g
     id="g9724-3-2-7-7-5-8-8-7-4-8-3-7-5-9-3-9-0-6-2"
     transform="matrix(0.18612759,0,0,0.18612759,-1815.0321,14.722854)">
    <rect
       style="fill:#f5f5f5;stroke:#ffffff;stroke-width:7.01381;stroke-miterlimit:4;stroke-dasharray:none;stroke-dashoffset:6;stroke-opacity:0.999946"
       id="rect1017-5-8-9-6-6-5-29-9-7-0-0-6-7-8-8-3-6-3-0-9-2"
       width="300"
       height="300"
       x="11643.927"
       y="1599.9999" />
    <path
       id="rect1017-6-3-1-1-7-1-8-0-2-9-8-6-0-9-7-4-2-75-38-4-8-0"
       style="fill:#ad0000;stroke:#ffffff;stroke-width:7.01381;stroke-miterlimit:4;stroke-dasharray:none;stroke-dashoffset:6;stroke-opacity:0.999949"
       d="m 11943.927,1600 100,-100 v 300 l -100,100 z" />
    <path
       id="rect1017-6-7-5-3-9-5-3-7-2-8-0-6-4-4-3-4-3-4-3-0-6-7-5"
       style="fill:#4d4d4d;stroke:#ffffff;stroke-width:7.01381;stroke-miterlimit:4;stroke-dasharray:none;stroke-dashoffset:6;stroke-opacity:1"
       d="m 12043.927,1500 -100,100 h -300 l 100,-100 z" />
  </g>
  <g
     aria-label="e"
     id="text61804-5-3-9-4-8"
     style="font-size:340.396px;line-height:1.25;font-family:aakar;-inkscape-font-specification:aakar;fill:#ad0000;stroke-width:2.36387">
    <path
       d="m 264.61324,310.76809 5.31869,2.32693 q -5.65111,17.28573 -18.28299,31.5797 -21.27475,23.9341 -52.18962,23.9341 -28.25553,0 -45.20885,-19.61266 -16.95331,-19.61266 -16.95331,-54.84897 0,-41.55224 23.93409,-63.82425 19.28024,-17.95057 43.87917,-17.95057 24.93135,0 39.55774,13.96156 16.28848,15.29122 18.94783,46.87093 H 160.234 q 0,39.89016 17.95057,58.17315 13.96155,14.29397 34.90388,14.29397 19.28025,0 33.90664,-12.63189 8.31045,-7.31319 17.61815,-22.272 z m -103.38199,-48.2006 h 68.4781 q -2.65934,-17.28574 -6.98077,-24.93135 -7.64562,-13.29672 -24.93135,-13.29672 -14.95881,0 -23.9341,8.64287 -8.64286,8.31045 -12.63188,29.5852 z"
       id="path1221" />
  </g>
</svg>
